<svg xmlns="http://www.w3.org/2000/svg" viewBox="0 0 300 100" preserveAspectRatio="xMidYMid meet">
  <svg x="0" y="5" width="80" height="90" viewBox="215 80 180 195">
    <g transform="translate(0.000000,400.000000) scale(0.100000,-0.100000)" fill="currentColor" stroke="none">
      <path d="M3770 3047 c-3 -2 -41 -7 -85 -10 -252 -19 -537 -120 -769 -275 -81 -54 -228 -191 -295 -276 -148 -187 -224 -400 -238 -661 l-6 -120 -69 -139 c-73 -145 -79 -178 -37 -191 30 -10 46 9 99 116 45 89 52 98 96 118 26 13 141 47 256 77 344 89 487 173 592 348 36 61 44 94 26 112 -6 6 12 24 55 53 200 131 380 374 465 629 57 171 50 211 -36 219 -27 3 -51 3 -54 0z m103 -72 c-3 -58 -21 -118 -65 -222 -68 -164 -149 -286 -264 -400 -163 -163 -331 -249 -629 -324 -228 -57 -356 -143 -438 -293 -20 -38 -35 -71 -33 -73 2 -3 17 2 33 10 29 15 144 54 179 61 278 58 461 145 563 266 48 57 51 65 14 47 -42 -22 -125 -39 -189 -39 -51 -1 -55 -2 -39 -14 22 -16 72 -18 130 -4 49 11 55 6 24 -20 -99 -86 -218 -139 -435 -194 -76 -19 -159 -42 -183 -51 -24 -8 -46 -14 -47 -12 -8 7 56 96 96 135 72 69 238 142 375 165 17 3 60 10 96 16 81 13 169 43 226 77 25 14 47 24 49 21 2 -2 -13 -34 -33 -72 -52 -92 -153 -185 -257 -235 -103 -50 -133 -59 -350 -114 -98 -25 -204 -58 -235 -73 -54 -27 -58 -32 -111 -135 -30 -60 -60 -108 -66 -108 -30 0 -19 40 43 163 l67 132 12 150 c8 93 23 188 39 250 93 355 384 657 790 818 200 79 383 116 560 113 l80 -1 -2 -40z"/>
      <path d="M3675 2978 c-355 -39 -749 -230 -942 -455 -187 -218 -253 -370 -283 -653 -13 -116 -12 -121 12 -75 19 37 148 235 217 334 17 24 36 63 41 85 31 119 64 233 72 246 20 33 -5 -118 -38 -235 -4 -11 10 -1 32 25 76 89 241 248 344 329 149 119 374 265 520 339 68 35 126 65 129 68 5 5 5 5 -104 -8z m-56 -42 c-2 -2 -65 -41 -139 -86 -212 -128 -401 -273 -568 -435 l-104 -100 7 70 c6 74 -2 102 -29 92 -14 -6 -27 -42 -85 -243 -14 -48 -37 -93 -69 -136 -26 -35 -69 -99 -97 -141 l-50 -77 -3 42 c-4 58 40 226 82 315 71 150 202 305 356 423 133 101 339 198 530 249 97 26 182 39 169 27z"/>
      <path d="M3704 2915 c-427 -222 -794 -542 -1082 -941 -39 -54 -36 -67 7 -31 46 38 146 83 251 112 344 95 490 172 656 347 108 114 178 224 240 377 48 118 66 191 48 191 -7 0 -61 -25 -120 -55z m91 -17 c-9 -41 -65 -177 -99 -241 -104 -194 -279 -364 -471 -460 -72 -35 -177 -72 -310 -107 -64 -17 -141 -42 -172 -56 -31 -13 -58 -23 -59 -21 -7 7 76 111 181 228 156 174 247 254 505 444 87 64 399 244 423 245 5 0 5 -15 2 -32z"/>
    </g>
  </svg>
  <text x="90" y="68" fill="currentColor" font-family="Georgia, 'Times New Roman', serif" font-style="italic" font-size="55" font-weight="400">scriva</text>
</svg>
